# xmcd CD database file
#
# Track frame offsets:
#	150
#	17059
#	35039
#	51720
#	65924
#	86730
#	101962
#	120866
#	138055
#	158522
#	175171
#	189656
#
# Disc length: 2808 seconds
#
# Revision: 0
# Processed by: cddbd v1.5.2PL0 Copyright (c) Steve Scherf et al.
# Submitted via: CDex 1.51
#
DISCID=a60af60c
DTITLE=Ray Lani - It's Just Life
DYEAR=2006
DGENRE=Country
TTITLE0=Ray Lani =The Lake
TTITLE1=Ray Lani =Not A Day Goes By
TTITLE2=Ray Lani =It's All In The Eyes
TTITLE3=Ray Lani =It's Just Life
TTITLE4=Ray Lani =Just A Hug
TTITLE5=Ray Lani =The Same Ole Sun
TTITLE6=Ray Lani =The World Outside
TTITLE7=Ray Lani =It's A Way Of Life
TTITLE8=Ray Lani =The Child Within
TTITLE9=Ray Lani =Precious
TTITLE10=Ray Lani =You Don't Hear Me
TTITLE11=Ray Lani =Names On The Headstones. Faces On The Wall
EXTD=YEAR: 2006
EXTT0=
EXTT1=
EXTT2=
EXTT3=
EXTT4=
EXTT5=
EXTT6=
EXTT7=
EXTT8=
EXTT9=
EXTT10=
EXTT11=
PLAYORDER=
